<?xml version="1.0" encoding="UTF-8" standalone="no"?><!DOCTYPE svg PUBLIC "-//W3C//DTD SVG 1.1//EN" "http://www.w3.org/Graphics/SVG/1.1/DTD/svg11.dtd"><svg width="100%" height="100%" viewBox="0 0 417 417" version="1.1" xmlns="http://www.w3.org/2000/svg" xmlns:xlink="http://www.w3.org/1999/xlink" xml:space="preserve" style="fill-rule:evenodd;clip-rule:evenodd;stroke-linejoin:round;stroke-miterlimit:1.41421;"><g><path d="M187.704,334.992l-158.679,-174.317c-1.879,0.5 -3.846,0.762 -5.875,0.762c-12.779,0 -23.15,-10.508 -23.15,-23.458c0,-12.946 10.371,-23.458 23.15,-23.458c1.621,0 3.204,0.171 4.733,0.496l45.863,-48.113c-0.492,-1.9 -0.75,-3.891 -0.75,-5.946c0,-12.945 10.371,-23.458 23.146,-23.458c9.15,0 17.062,5.387 20.82,13.204c61.121,-0.733 122.313,-3.608 183.326,-1.133c3.954,-7.2 11.537,-12.071 20.237,-12.071c12.775,0 23.146,10.513 23.146,23.458c0,2.075 -0.263,4.088 -0.763,6.004l46.142,47.996c1.446,-0.283 2.942,-0.437 4.467,-0.437c12.779,0 23.15,10.512 23.15,23.458c0,12.95 -10.371,23.458 -23.15,23.458c-2.142,0 -4.221,-0.295 -6.192,-0.849l-156.492,172.304c1.275,2.908 1.988,6.129 1.988,9.516c0,12.946 -10.375,23.455 -23.15,23.455c-12.775,0 -23.146,-10.509 -23.146,-23.455c0,-2.591 0.413,-5.087 1.179,-7.416Zm183.133,-192.309l-80.366,0.188l-65.1,177.141l151.012,-166.266c-2.746,-3.063 -4.7,-6.859 -5.546,-11.063Zm-158.658,176.4l64.629,-175.866l-134.875,0l-3.741,0.008l66.1,176.363c1.725,-0.417 3.529,-0.638 5.379,-0.638c0.85,0 1.683,0.046 2.508,0.133Zm-166.517,-175.641c-0.941,4 -2.895,7.604 -5.574,10.521l150.545,165.379l-65.995,-176.084l-78.976,0.184Zm-6.233,-22.13c2.596,2.605 4.588,5.826 5.742,9.43l73.425,-0.171l-21.404,-46.179c-0.35,0.016 -0.7,0.025 -1.05,0.025c-6.034,0 -11.53,-2.346 -15.65,-6.184l-41.063,43.079Zm105.904,9.121c41.284,-0.404 82.605,-2.05 123.838,-0.658l-60.988,-63.125l-62.85,63.783Zm232.059,-9.275l-41.242,-42.9c-4.121,3.825 -9.604,6.159 -15.625,6.159c-0.567,0 -1.133,-0.021 -1.687,-0.063l-22.126,45.8l75.042,-0.175c1.204,-3.366 3.15,-6.371 5.638,-8.821Zm-79.875,-57.591l-74.655,0l61.276,63.416l22.741,-47.079c-5.104,-3.783 -8.629,-9.637 -9.362,-16.337Zm-178.367,0c-0.758,6.92 -4.492,12.933 -9.871,16.704l21.642,46.687l62.466,-63.391l-74.237,0Z" style="fill:#bd2628;"/></g></svg>