<?xml version="1.0" encoding="UTF-8" standalone="no"?><!DOCTYPE svg PUBLIC "-//W3C//DTD SVG 1.1//EN" "http://www.w3.org/Graphics/SVG/1.1/DTD/svg11.dtd"><svg width="100%" height="100%" viewBox="0 0 1005 117" version="1.1" xmlns="http://www.w3.org/2000/svg" xmlns:xlink="http://www.w3.org/1999/xlink" xml:space="preserve" style="fill-rule:evenodd;clip-rule:evenodd;stroke-linejoin:round;stroke-miterlimit:1.41421;"><g><path d="M65.833,102.442l-54.27,-59.613c-1.042,0.488 -2.201,0.763 -3.421,0.763c-4.492,0 -8.142,-3.696 -8.142,-8.25c0,-4.555 3.65,-8.25 8.142,-8.25c0.291,0 0.579,0.016 0.858,0.046l18.142,-19.03c0.075,-4.487 3.696,-8.108 8.141,-8.108c2.609,0 4.93,1.246 6.421,3.179c21.171,-0.258 42.371,-1.241 63.508,-0.433c1.492,-1.684 3.655,-2.746 6.063,-2.746c4.1,0 7.5,3.079 8.058,7.079l19.242,20.013c4.417,0.087 7.979,3.75 7.979,8.25c0,4.554 -3.65,8.25 -8.141,8.25c-0.996,0 -1.955,-0.184 -2.838,-0.517l-54.575,60.088c0.275,0.82 0.421,1.704 0.421,2.616c0,4.554 -3.65,8.25 -8.142,8.25c-4.491,0 -8.141,-3.696 -8.141,-8.25c0,-1.187 0.249,-2.316 0.695,-3.337Zm64.442,-66.909l-27.638,0.063l-22.9,62.317l52.238,-57.521c-1.033,-1.35 -1.663,-3.03 -1.7,-4.859Zm-55.229,62.192l22.792,-62.008l-46.85,0l-1.913,0.004l23.192,61.871c0.329,-0.042 0.67,-0.063 1.012,-0.063c0.608,0 1.2,0.067 1.767,0.196Zm-58.775,-61.925c-0.084,1.508 -0.563,2.908 -1.342,4.096l52.592,57.771l-23.208,-61.934l-28.042,0.067Zm-2.892,-6.775c0.754,0.646 1.392,1.425 1.879,2.308l26.925,-0.062l-6.846,-14.771c-0.016,0 -0.037,0 -0.054,0c-2.741,0 -5.17,-1.379 -6.645,-3.488l-15.259,16.013Zm38.208,2.196c14.521,-0.142 29.055,-0.717 43.559,-0.229l-21.45,-22.205l-22.109,22.434Zm66.705,-18.783c-1.317,2.258 -3.663,3.824 -6.384,4.037l-7.075,14.65l26.617,-0.063c0.596,-0.991 1.396,-1.845 2.333,-2.508l-15.491,-16.116Zm-15.142,-4.738l-24.292,0l21.555,22.308l6.999,-14.496c-2.545,-1.391 -4.279,-4.125 -4.279,-7.262c0,-0.183 0.005,-0.367 0.017,-0.55Zm-34.654,0l-25.088,0c0.013,0.183 0.017,0.367 0.017,0.55c0,2.921 -1.5,5.488 -3.762,6.954l6.858,14.796l21.975,-22.3Z" style="fill:#bd2628;"/><path d="M291.583,38.075c0,13.121 -5.737,21.392 -17.212,24.804l20.858,28.9l-17.1,0l-19.033,-26.737l-17.671,0l0,26.737l-13.45,0l0,-79.533l29.637,0c12.159,0 20.863,2.046 26.105,6.146c5.241,4.095 7.866,10.654 7.866,19.683Zm-17.896,11.262c2.734,-2.349 4.1,-6.124 4.1,-11.32c0,-5.196 -1.404,-8.763 -4.216,-10.696c-2.813,-1.933 -7.825,-2.9 -15.046,-2.9l-17.1,0l0,28.446l16.758,0c7.6,0 12.767,-1.175 15.504,-3.53Zm75.8,14.68l0,-32.771l12.767,0l0,60.533l-12.767,0l0,-11.037c-2.049,3.72 -4.883,6.637 -8.491,8.762c-3.609,2.125 -7.504,3.188 -11.683,3.188c-6.842,0 -12.367,-2.088 -16.588,-6.259c-4.217,-4.17 -6.325,-10.204 -6.325,-18.091l0,-37.096l12.767,0l0,33.225c0,11.154 4.637,16.729 13.908,16.729c4.404,0 8.242,-1.462 11.512,-4.383c3.267,-2.921 4.9,-7.188 4.9,-12.8Zm83.555,-25.259c5.775,5.613 8.662,13.084 8.662,22.413c0,9.333 -2.867,16.917 -8.604,22.758c-5.737,5.842 -12.425,8.763 -20.063,8.763c-7.637,0 -14.495,-3.338 -20.574,-10.013l0,9.1l-12.767,0l0,-84.425l12.767,0l0,34.475c5.012,-7.662 11.587,-11.491 19.72,-11.491c8.129,0 15.084,2.808 20.859,8.42Zm-35.567,37.038c3.496,3.679 7.754,5.517 12.767,5.517c5.016,0 9.387,-1.821 13.112,-5.463c3.721,-3.642 5.583,-8.363 5.583,-14.167c0,-5.8 -1.824,-10.616 -5.47,-14.45c-3.65,-3.829 -8.017,-5.745 -13.109,-5.745c-5.091,0 -9.387,1.916 -12.883,5.745c-3.496,3.834 -5.242,8.629 -5.242,14.396c0,5.763 1.746,10.488 5.242,14.167Zm65.429,40.108c-5.546,0 -10.562,-2.012 -15.046,-6.033l5.817,-10.354c2.658,2.504 5.412,3.758 8.262,3.758c2.851,0 5.167,-1.025 6.955,-3.075c1.783,-2.046 2.679,-4.283 2.679,-6.713c0,-1.062 -8.171,-21.808 -24.509,-62.241l13.68,0l18.121,44.604l18.125,-44.604l13.679,0l-29.409,71.912c-1.75,3.946 -4.254,7.054 -7.525,9.334c-3.266,2.275 -6.875,3.412 -10.829,3.412Zm123.679,-24.125l-34.879,0l0,-79.533l31.004,0c5.396,0 10.05,0.646 13.963,1.933c3.912,1.292 6.821,3.034 8.721,5.234c3.646,4.095 5.47,8.725 5.47,13.883c0,6.221 -1.975,10.846 -5.929,13.883c-1.441,1.058 -2.429,1.725 -2.962,1.988c-0.529,0.266 -1.479,0.704 -2.85,1.308c4.942,1.063 8.875,3.283 11.8,6.658c2.925,3.375 4.387,7.567 4.387,12.575c0,5.538 -1.9,10.429 -5.7,14.675c-4.483,4.934 -12.158,7.396 -23.025,7.396Zm-21.429,-46.537l17.096,0c9.729,0 14.592,-3.3 14.592,-9.9c0,-3.792 -1.18,-6.521 -3.534,-8.192c-2.354,-1.667 -6.004,-2.504 -10.941,-2.504l-17.213,0l0,20.596Zm0,34.137l21.088,0c4.937,0 8.721,-0.779 11.341,-2.333c2.621,-1.554 3.934,-4.496 3.934,-8.817c0,-7.058 -5.663,-10.583 -16.984,-10.583l-19.379,0l0,21.733Zm120.6,-12.292l-47.533,0c0.304,4.4 2.317,7.95 6.042,10.642c3.72,2.692 7.979,4.038 12.766,4.038c7.6,0 13.375,-2.388 17.325,-7.167l7.296,7.962c-6.538,6.755 -15.046,10.13 -25.533,10.13c-8.513,0 -15.75,-2.825 -21.717,-8.48c-5.963,-5.65 -8.946,-13.233 -8.946,-22.754c0,-9.52 3.038,-17.087 9.117,-22.7c6.079,-5.612 13.242,-8.42 21.487,-8.42c8.246,0 15.255,2.483 21.034,7.454c5.775,4.966 8.662,11.812 8.662,20.537l0,8.758Zm-47.533,-10.012l34.766,0c0,-5.079 -1.595,-8.987 -4.787,-11.717c-3.192,-2.733 -7.125,-4.096 -11.8,-4.096c-4.671,0 -8.871,1.421 -12.596,4.267c-3.721,2.842 -5.583,6.692 -5.583,11.546Zm73.292,34.704l-12.767,0l0,-84.425l12.767,0l0,84.425Zm73.524,-60.533l0,52.796c0,10.695 -2.908,18.721 -8.72,24.066c-5.813,5.35 -13.28,8.021 -22.4,8.021c-9.117,0 -17.363,-2.841 -24.734,-8.533l6.042,-9.671c5.925,4.475 11.913,6.712 17.95,6.712c6.042,0 10.829,-1.554 14.362,-4.662c3.538,-3.112 5.305,-8.079 5.305,-14.908l0,-7.738c-1.9,3.567 -4.617,6.413 -8.15,8.533c-3.538,2.126 -7.504,3.188 -11.913,3.188c-8.058,0 -14.666,-2.808 -19.833,-8.421c-5.171,-5.612 -7.754,-12.591 -7.754,-20.937c0,-8.342 2.583,-15.321 7.754,-20.934c5.167,-5.612 11.758,-8.42 19.775,-8.42c8.016,0 14.533,3.299 19.55,9.899l0,-8.991l12.766,0Zm-42.687,40.791c3.075,3.605 7.217,5.409 12.421,5.409c5.208,0 9.425,-1.746 12.654,-5.238c3.229,-3.487 4.846,-7.829 4.846,-13.025c0,-5.2 -1.633,-9.596 -4.904,-13.2c-3.267,-3.604 -7.484,-5.404 -12.65,-5.404c-5.167,0 -9.292,1.858 -12.367,5.575c-3.079,3.717 -4.617,8.058 -4.617,13.029c0,4.967 1.538,9.255 4.617,12.854Zm72.892,19.742l-12.767,0l0,-60.533l12.767,0l0,60.533Zm-14.363,-78.283c0,-2.2 0.8,-4.096 2.396,-5.688c1.596,-1.591 3.496,-2.391 5.7,-2.391c2.204,0 4.104,0.8 5.7,2.391c1.596,1.592 2.392,3.488 2.392,5.688c0,2.2 -0.796,4.096 -2.392,5.691c-1.596,1.592 -3.496,2.388 -5.7,2.388c-2.204,0 -4.104,-0.796 -5.7,-2.388c-1.596,-1.595 -2.396,-3.491 -2.396,-5.691Zm74.208,50.521l0,-32.771l12.767,0l0,60.533l-12.767,0l0,-11.037c-2.049,3.72 -4.883,6.637 -8.491,8.762c-3.608,2.125 -7.504,3.188 -11.683,3.188c-6.842,0 -12.371,-2.088 -16.588,-6.259c-4.217,-4.17 -6.325,-10.204 -6.325,-18.091l0,-37.096l12.767,0l0,33.225c0,11.154 4.633,16.729 13.908,16.729c4.404,0 8.242,-1.462 11.513,-4.383c3.266,-2.921 4.899,-7.188 4.899,-12.8Zm42.976,-5.004l0,32.766l-12.767,0l0,-60.533l12.767,0l0,11.037c1.82,-3.716 4.574,-6.637 8.262,-8.758c3.688,-2.125 7.654,-3.187 11.913,-3.187c9.575,0 16.07,3.945 19.491,11.833c6.004,-7.888 13.488,-11.833 22.454,-11.833c6.842,0 12.367,2.087 16.588,6.258c4.216,4.171 6.325,10.204 6.325,18.091l0,37.092l-12.767,0l0,-33.225c0,-11.15 -4.633,-16.725 -13.908,-16.725c-4.329,0 -8.108,1.384 -11.342,4.154c-3.229,2.767 -4.917,6.809 -5.071,12.117l0,33.679l-12.766,0l0,-33.225c0,-5.762 -1.025,-9.991 -3.08,-12.687c-2.05,-2.692 -5.279,-4.038 -9.687,-4.038c-4.408,0 -8.246,1.463 -11.512,4.379c-3.267,2.921 -4.9,7.188 -4.9,12.805Z" style="fill:#bd2628;"/></g></svg>